<?xml version="1.0" encoding="UTF-8"?><svg id="Layer_2" xmlns="http://www.w3.org/2000/svg" viewBox="0 0 714.68 83.19"><defs><style>.cls-1{fill:white;}</style></defs><rect class="cls-1" fill="white" x="5.67" width="50.1" height="5.67"/><rect class="cls-1" y="11.34" width="55.77" height="5.67"/><rect class="cls-1" y="11.34" width="55.77" height="5.67"/><rect class="cls-1" y="21.74" width="16.07" height="5.67"/><rect class="cls-1" y="33.09" width="16.07" height="5.67"/><rect class="cls-1" y="55.77" width="16.07" height="5.67"/><rect class="cls-1" y="44.24" width="16.07" height="5.67"/><rect class="cls-1" y="66.17" width="55.77" height="5.67"/><rect class="cls-1" x="5.67" y="77.51" width="50.1" height="5.67"/><rect class="cls-1" x="72.9" y="0" width="44.43" height="5.67"/><polygon class="cls-1" points="122.06 11.34 67.23 11.34 67.23 17.02 122.08 17.24 122.06 11.34"/><rect class="cls-1" x="72.9" y="77.51" width="44.43" height="5.67"/><polygon class="cls-1" points="122.06 66.06 67.23 66.06 67.23 71.73 122.08 71.96 122.06 66.06"/><rect class="cls-1" x="105.99" y="21.74" width="16.09" height="5.67"/><rect class="cls-1" x="67.22" y="55.77" width="16.09" height="5.67"/><rect class="cls-1" x="67.22" y="44.4" width="16.09" height="5.67"/><rect class="cls-1" x="67.22" y="33.09" width="16.09" height="5.67"/><rect class="cls-1" x="67.22" y="21.74" width="16.09" height="5.67"/><rect class="cls-1" x="105.99" y="55.77" width="16.09" height="5.67"/><rect class="cls-1" x="106.29" y="44.4" width="16.09" height="5.67"/><rect class="cls-1" x="106.33" y="33.03" width="16.09" height="5.67"/><rect class="cls-1" x="514.6" width="54.83" height="5.67"/><rect class="cls-1" x="515.07" y="11.34" width="54.83" height="5.67"/><rect class="cls-1" x="514.6" y="66.17" width="54.83" height="5.67"/><rect class="cls-1" x="514.6" y="77.51" width="54.83" height="5.67"/><rect class="cls-1" x="520.27" y="44.43" width="44.43" height="5.4"/><rect class="cls-1" x="519.8" y="33.22" width="44.43" height="5.4"/><rect class="cls-1" x="520.27" y="21.88" width="17" height="5.04"/><rect class="cls-1" x="520.27" y="56.09" width="17" height="5.04"/><rect class="cls-1" x="426.58" y="11.65" width="33.09" height="5.22"/><rect class="cls-1" x="432.26" y="44.61" width="17" height="5.04"/><rect class="cls-1" x="432.26" y="56.27" width="17" height="5.04"/><rect class="cls-1" x="475.74" y="33.59" width="17" height="5.04"/><rect class="cls-1" x="476.21" y="21.93" width="17" height="5.04"/><rect class="cls-1" x="465.34" y="66.58" width="33.09" height="5.22"/><rect class="cls-1" x="459.66" y="56.09" width="33.09" height="5.22"/><rect class="cls-1" x="432.25" y="22.06" width="33.09" height="5.22"/><rect class="cls-1" x="426.58" y="77.89" width="27.41" height="5.19"/><rect class="cls-1" x="432.49" y="33.5" width="38.28" height="5.22"/><rect class="cls-1" x="454.46" y="44.75" width="38.28" height="5.22"/><rect class="cls-1" x="471.01" y="11.71" width="27.41" height="5.17"/><rect class="cls-1" x="470.53" y="77.89" width="27.41" height="5.19"/><rect class="cls-1" x="426.58" y="66.52" width="27.41" height="5.19"/><rect class="cls-1" x="470.53" y=".13" width="27.41" height="5.19"/><rect class="cls-1" x="427.05" y=".11" width="27.41" height="5.19"/><rect class="cls-1" x="139.08" y="44.62" width="17" height="5.04"/><rect class="cls-1" x="139.61" y="56.28" width="17" height="5.04"/><rect class="cls-1" x="205.25" y="55.96" width="17" height="5.04"/><rect class="cls-1" x="204.77" y="44.62" width="17" height="5.04"/><rect class="cls-1" x="172.64" y="66.68" width="17" height="5.04"/><rect class="cls-1" x="189.17" y="22.07" width="33.09" height="5.22"/><rect class="cls-1" x="189.17" y="22.07" width="33.09" height="5.22"/><rect class="cls-1" x="189.17" y="22.07" width="33.09" height="5.22"/><rect class="cls-1" x="189.17" y="22.07" width="33.09" height="5.22"/><rect class="cls-1" x="140.07" y="21.84" width="33.09" height="5.22"/><rect class="cls-1" x="140.07" y="21.84" width="33.09" height="5.22"/><rect class="cls-1" x="140.07" y="21.84" width="33.09" height="5.22"/><rect class="cls-1" x="140.07" y="21.84" width="33.09" height="5.22"/><rect class="cls-1" x="200.04" y="77.89" width="27.41" height="5.17"/><rect class="cls-1" x="161.76" y="44.53" width="38.28" height="5.22"/><rect class="cls-1" x="133.87" y="10.97" width="33.09" height="5.22"/><rect class="cls-1" x="194.37" y="11.66" width="33.09" height="5.22"/><rect class="cls-1" x="194.37" y="11.66" width="33.09" height="5.22"/><rect class="cls-1" x="194.37" y="11.66" width="33.09" height="5.22"/><rect class="cls-1" x="194.37" y="11.66" width="33.09" height="5.22"/><rect class="cls-1" x="139.78" y="33.5" width="38.28" height="5.22"/><rect class="cls-1" x="183.74" y="33.19" width="38.28" height="5.22"/><rect class="cls-1" x="166.96" y="56.63" width="27.41" height="5.17"/><rect class="cls-1" x="133.87" y="77.89" width="27.41" height="5.17"/><rect class="cls-1" x="199.53" y="66.86" width="27.41" height="5.17"/><rect class="cls-1" x="133.87" y="66.3" width="27.41" height="5.17"/><rect class="cls-1" x="134.34" y=".15" width="27.41" height="5.17"/><rect class="cls-1" x="200.04" y=".13" width="27.41" height="5.17"/><rect class="cls-1" x="178.29" y="77.71" width="5.68" height="5.04"/><rect class="cls-1" x="244.1" y="44.62" width="17" height="5.04"/><rect class="cls-1" x="244.64" y="56.28" width="17" height="5.04"/><rect class="cls-1" x="310.27" y="55.96" width="17" height="5.04"/><rect class="cls-1" x="309.8" y="44.62" width="17" height="5.04"/><rect class="cls-1" x="277.67" y="66.68" width="17" height="5.04"/><rect class="cls-1" x="294.2" y="22.07" width="33.09" height="5.22"/><rect class="cls-1" x="294.2" y="22.07" width="33.09" height="5.22"/><rect class="cls-1" x="294.2" y="22.07" width="33.09" height="5.22"/><rect class="cls-1" x="294.2" y="22.07" width="33.09" height="5.22"/><rect class="cls-1" x="245.1" y="21.84" width="33.09" height="5.22"/><rect class="cls-1" x="245.1" y="21.84" width="33.09" height="5.22"/><rect class="cls-1" x="245.1" y="21.84" width="33.09" height="5.22"/><rect class="cls-1" x="245.1" y="21.84" width="33.09" height="5.22"/><rect class="cls-1" x="305.07" y="77.89" width="27.41" height="5.17"/><rect class="cls-1" x="266.79" y="44.53" width="38.28" height="5.22"/><rect class="cls-1" x="238.9" y="10.97" width="33.09" height="5.22"/><rect class="cls-1" x="299.4" y="11.66" width="33.09" height="5.22"/><rect class="cls-1" x="299.4" y="11.66" width="33.09" height="5.22"/><rect class="cls-1" x="299.4" y="11.66" width="33.09" height="5.22"/><rect class="cls-1" x="299.4" y="11.66" width="33.09" height="5.22"/><rect class="cls-1" x="244.81" y="33.5" width="38.28" height="5.22"/><rect class="cls-1" x="288.76" y="33.19" width="38.28" height="5.22"/><rect class="cls-1" x="271.98" y="56.63" width="27.41" height="5.17"/><rect class="cls-1" x="238.9" y="77.89" width="27.41" height="5.17"/><rect class="cls-1" x="304.56" y="66.86" width="27.41" height="5.17"/><rect class="cls-1" x="238.9" y="66.3" width="27.41" height="5.17"/><rect class="cls-1" x="239.37" y=".15" width="27.41" height="5.17"/><rect class="cls-1" x="305.07" y=".13" width="27.41" height="5.17"/><rect class="cls-1" x="283.32" y="77.71" width="5.68" height="5.04"/><rect class="cls-1" x="348.35" y="21.73" width="17" height="5.04"/><rect class="cls-1" x="387.72" y="11.58" width="27.41" height="5.17"/><rect class="cls-1" x="354.95" y="77.73" width="49.16" height="5.22"/><rect class="cls-1" x="349.52" y="67.24" width="60.26" height="4.34"/><rect class="cls-1" x="343.93" y="11.58" width="27.41" height="5.17"/><rect class="cls-1" x="344.08" y=".24" width="27.41" height="5.17"/><rect class="cls-1" x="387.57" y=".24" width="27.41" height="5.17"/><rect class="cls-1" x="348.35" y="33.8" width="17" height="5.04"/><rect class="cls-1" x="393.41" y="56.4" width="17" height="5.04"/><rect class="cls-1" x="393.41" y="44.48" width="17" height="5.04"/><rect class="cls-1" x="393.41" y="33.8" width="17" height="5.04"/><rect class="cls-1" x="392.77" y="21.73" width="17" height="5.04"/><rect class="cls-1" x="348.35" y="56.4" width="17" height="5.04"/><rect class="cls-1" x="348.35" y="45.72" width="17" height="5.04"/><rect class="cls-1" x="687.27" width="27.41" height="5.67"/><rect class="cls-1" x="692.47" y="21.74" width="17.02" height="5.67"/><rect class="cls-1" x="687.27" y="77.51" width="27.41" height="5.67"/><rect class="cls-1" x="687.27" y="11.34" width="27.41" height="5.67"/><rect class="cls-1" x="687.27" y="66.17" width="27.41" height="5.67"/><rect class="cls-1" x="692.47" y="55.77" width="17.02" height="5.67"/><rect class="cls-1" x="692.47" y="43.96" width="17.02" height="5.67"/><rect class="cls-1" x="692.47" y="33.09" width="17.02" height="5.67"/><rect class="cls-1" x="609.23" y="66.16" width="17.02" height="5.67"/><rect class="cls-1" x="614.08" y="33.07" width="17.02" height="5.67"/><rect class="cls-1" x="647.63" y="33.07" width="17.02" height="5.67"/><rect class="cls-1" x="652.94" y="66.16" width="17.02" height="5.67"/><rect class="cls-1" x="620.05" y="21.73" width="17.02" height="5.67"/><rect class="cls-1" x="642.27" y="21.73" width="17.02" height="5.67"/><rect class="cls-1" x="620.05" y="11.33" width="39.82" height="5.61"/><rect class="cls-1" x="614.35" y=".01" width="50.3" height="5.61"/><rect class="cls-1" x="614.09" y="44.97" width="50.3" height="5.61"/><rect class="cls-1" x="609.34" y="55.79" width="60.61" height="5.61"/><rect class="cls-1" x="603.67" y="77.5" width="27.41" height="5.67"/><rect class="cls-1" x="647.63" y="77.5" width="27.41" height="5.67"/></svg>